<svg xmlns="http://www.w3.org/2000/svg" xmlns:xlink="http://www.w3.org/1999/xlink" width="600" zoomAndPan="magnify" viewBox="0 0 450 449.999984" height="600" preserveAspectRatio="xMidYMid meet" version="1.0"><path fill="#6c8cff" d="M 322.078125 112.949219 C 337.296875 128.179688 359.609375 132.007812 378.375 124.464844 L 418.6875 164.753906 C 426.910156 173.007812 426.917969 186.375 418.640625 194.652344 L 194.53125 418.628906 C 186.242188 426.875 172.886719 426.851562 164.617188 418.628906 L 124.386719 378.332031 C 131.882812 359.542969 128.066406 337.25 112.871094 322.019531 C 97.621094 306.792969 75.339844 302.976562 56.5625 310.507812 L 30.242188 284.175781 C 21.988281 275.953125 21.964844 262.554688 30.242188 254.277344 L 254.320312 30.265625 C 262.566406 22.007812 275.921875 21.996094 284.210938 30.289062 L 310.550781 56.628906 C 303 75.40625 306.859375 97.699219 322.078125 112.949219 Z M 322.078125 112.949219 " fill-opacity="1" fill-rule="nonzero"/><path fill="#0e35bf" d="M 84.085938 230.320312 L 60.109375 254.289062 C 51.867188 262.53125 51.84375 275.921875 60.078125 284.1875 L 66.125 290.222656 C 87.277344 284.589844 110.742188 290.023438 127.285156 306.601562 C 143.886719 323.183594 149.277344 346.644531 143.652344 367.753906 L 164.605469 388.761719 C 172.875 397.007812 186.261719 397.007812 194.53125 388.742188 L 218.953125 364.339844 Z M 234.941406 348.363281 L 348.273438 235.097656 L 213.375 101.078125 L 100.085938 214.34375 Z M 257.144531 192.242188 C 282.191406 217.101562 287.769531 252 269.652344 270.21875 C 251.496094 288.460938 216.519531 283.0625 191.539062 258.226562 C 166.558594 233.367188 160.992188 198.445312 179.109375 180.226562 C 197.242188 162.039062 232.164062 167.394531 257.144531 192.242188 Z M 388.796875 164.753906 L 367.808594 143.765625 C 346.667969 149.378906 323.203125 144 306.636719 127.386719 C 290.035156 110.832031 284.589844 87.324219 290.234375 66.203125 L 284.199219 60.109375 C 275.941406 51.910156 262.554688 51.910156 254.320312 60.144531 L 229.375 85.089844 L 364.285156 219.097656 L 388.785156 194.609375 C 397.042969 186.386719 397.042969 173.007812 388.796875 164.753906 Z M 388.796875 164.753906 " fill-opacity="1" fill-rule="nonzero"/></svg>