<svg xmlns="http://www.w3.org/2000/svg" xmlns:xlink="http://www.w3.org/1999/xlink" width="600" zoomAndPan="magnify" viewBox="0 0 450 149.999998" height="200" preserveAspectRatio="xMidYMid meet" version="1.0"><defs><g/><clipPath id="f2190ccab8"><path d="M 0.078125 13 L 27 13 L 27 62 L 0.078125 62 Z M 0.078125 13 " clip-rule="nonzero"/></clipPath><clipPath id="0ff1b00599"><rect x="0" width="289" y="0" height="75"/></clipPath></defs><path fill="#6c8cff" d="M 103.347656 41.628906 C 107.835938 46.121094 114.417969 47.25 119.949219 45.023438 L 131.839844 56.90625 C 134.261719 59.339844 134.265625 63.28125 131.824219 65.722656 L 65.734375 131.777344 C 63.289062 134.207031 59.351562 134.203125 56.910156 131.777344 L 45.046875 119.890625 C 47.257812 114.351562 46.132812 107.777344 41.652344 103.285156 C 37.152344 98.792969 30.582031 97.667969 25.046875 99.890625 L 17.285156 92.125 C 14.847656 89.699219 14.84375 85.75 17.285156 83.308594 L 83.367188 17.246094 C 85.796875 14.808594 89.734375 14.808594 92.179688 17.25 L 99.949219 25.019531 C 97.722656 30.558594 98.859375 37.132812 103.347656 41.628906 Z M 103.347656 41.628906 " fill-opacity="1" fill-rule="nonzero"/><path fill="#0e35bf" d="M 33.164062 76.242188 L 26.089844 83.3125 C 23.660156 85.742188 23.652344 89.691406 26.082031 92.128906 L 27.863281 93.910156 C 34.101562 92.246094 41.023438 93.847656 45.902344 98.738281 C 50.796875 103.628906 52.386719 110.546875 50.730469 116.773438 L 56.910156 122.96875 C 59.347656 125.398438 63.292969 125.398438 65.734375 122.960938 L 72.933594 115.765625 Z M 77.652344 111.054688 L 111.074219 77.652344 L 71.289062 38.128906 L 37.878906 71.53125 Z M 84.199219 65.011719 C 91.585938 72.34375 93.230469 82.636719 87.886719 88.007812 C 82.53125 93.390625 72.21875 91.796875 64.851562 84.472656 C 57.484375 77.140625 55.84375 66.84375 61.1875 61.46875 C 66.53125 56.105469 76.832031 57.6875 84.199219 65.011719 Z M 123.023438 56.90625 L 116.835938 50.71875 C 110.597656 52.371094 103.679688 50.785156 98.792969 45.886719 C 93.898438 41.003906 92.292969 34.070312 93.957031 27.84375 L 92.175781 26.046875 C 89.742188 23.628906 85.792969 23.628906 83.367188 26.054688 L 76.007812 33.414062 L 115.792969 72.933594 L 123.019531 65.710938 C 125.453125 63.285156 125.453125 59.339844 123.023438 56.90625 Z M 123.023438 56.90625 " fill-opacity="1" fill-rule="nonzero"/><g transform="matrix(1, 0, 0, 1, 148, 37)"><g clip-path="url(#0ff1b00599)"><g clip-path="url(#f2190ccab8)"><g fill="#000000" fill-opacity="1"><g transform="translate(0.220312, 61.462633)"><g><path d="M 15.203125 -48.453125 C 15.441406 -48.398438 15.644531 -48.328125 15.8125 -48.234375 C 15.976562 -48.140625 16.15625 -48.09375 16.34375 -48.09375 C 17.625 -47.90625 18.894531 -47.664062 20.15625 -47.375 C 21.414062 -47.09375 22.640625 -46.664062 23.828125 -46.09375 C 24.066406 -46 24.316406 -45.890625 24.578125 -45.765625 C 24.835938 -45.648438 25.066406 -45.5 25.265625 -45.3125 C 26.023438 -44.738281 26.367188 -44.023438 26.296875 -43.171875 C 26.222656 -42.316406 25.78125 -41.628906 24.96875 -41.109375 C 24.5 -40.773438 23.988281 -40.570312 23.4375 -40.5 C 22.894531 -40.425781 22.363281 -40.410156 21.84375 -40.453125 C 20.601562 -40.503906 19.351562 -40.550781 18.09375 -40.59375 C 16.832031 -40.644531 15.582031 -40.695312 14.34375 -40.75 C 13.726562 -40.789062 13.109375 -40.726562 12.484375 -40.5625 C 11.867188 -40.394531 11.273438 -40.195312 10.703125 -39.96875 C 9.703125 -39.488281 9.128906 -38.796875 8.984375 -37.890625 C 8.941406 -37.179688 8.882812 -36.457031 8.8125 -35.71875 C 8.738281 -34.976562 8.726562 -34.273438 8.78125 -33.609375 C 8.96875 -31.566406 9.128906 -29.519531 9.265625 -27.46875 C 9.410156 -25.425781 9.460938 -23.382812 9.421875 -21.34375 C 9.421875 -21.144531 9.429688 -20.914062 9.453125 -20.65625 C 9.472656 -20.394531 9.507812 -20.125 9.5625 -19.84375 C 9.800781 -19.9375 10.015625 -20.003906 10.203125 -20.046875 C 10.390625 -20.097656 10.582031 -20.144531 10.78125 -20.1875 C 11.632812 -20.570312 12.523438 -20.859375 13.453125 -21.046875 C 14.378906 -21.242188 15.296875 -21.363281 16.203125 -21.40625 C 17.203125 -21.550781 18.148438 -21.410156 19.046875 -20.984375 C 19.617188 -20.691406 20.082031 -20.304688 20.4375 -19.828125 C 20.800781 -19.359375 21.003906 -18.789062 21.046875 -18.125 C 21.191406 -16.644531 20.671875 -15.523438 19.484375 -14.765625 C 18.960938 -14.429688 18.390625 -14.191406 17.765625 -14.046875 C 17.148438 -13.910156 16.53125 -13.769531 15.90625 -13.625 C 14.289062 -13.289062 12.628906 -12.863281 10.921875 -12.34375 C 10.160156 -12.15625 9.726562 -11.960938 9.625 -11.765625 C 9.53125 -11.578125 9.460938 -11.128906 9.421875 -10.421875 C 9.421875 -9.796875 9.421875 -9.148438 9.421875 -8.484375 C 9.421875 -7.828125 9.421875 -7.164062 9.421875 -6.5 C 9.460938 -4.78125 9.054688 -3.160156 8.203125 -1.640625 C 7.585938 -0.453125 6.660156 0.1875 5.421875 0.28125 C 4.179688 0.375 3.132812 -0.0976562 2.28125 -1.140625 C 1.664062 -1.953125 1.203125 -2.773438 0.890625 -3.609375 C 0.578125 -4.441406 0.375 -5.332031 0.28125 -6.28125 C 0.09375 -8.519531 0.0078125 -10.753906 0.03125 -12.984375 C 0.0625 -15.222656 0.0976562 -17.457031 0.140625 -19.6875 C 0.191406 -20.789062 0.179688 -21.875 0.109375 -22.9375 C 0.0351562 -24.007812 0.0234375 -25.070312 0.078125 -26.125 C 0.171875 -28.207031 0.273438 -30.285156 0.390625 -32.359375 C 0.515625 -34.429688 0.671875 -36.488281 0.859375 -38.53125 C 1.097656 -41.050781 2 -43.117188 3.5625 -44.734375 C 5.132812 -46.359375 7.160156 -47.40625 9.640625 -47.875 C 10.015625 -47.976562 10.390625 -48.078125 10.765625 -48.171875 C 11.148438 -48.265625 11.535156 -48.359375 11.921875 -48.453125 C 12.441406 -48.453125 12.988281 -48.453125 13.5625 -48.453125 C 14.132812 -48.453125 14.679688 -48.453125 15.203125 -48.453125 Z M 2.78125 -38.46875 C 3.019531 -39.03125 3.222656 -39.5625 3.390625 -40.0625 C 3.554688 -40.5625 3.734375 -41.003906 3.921875 -41.390625 C 4.398438 -42.242188 5.019531 -43.097656 5.78125 -43.953125 C 6.113281 -44.285156 6.484375 -44.59375 6.890625 -44.875 C 7.296875 -45.164062 7.734375 -45.503906 8.203125 -45.890625 C 7.203125 -45.929688 6.226562 -45.535156 5.28125 -44.703125 C 4.332031 -43.867188 3.609375 -42.867188 3.109375 -41.703125 C 2.609375 -40.546875 2.5 -39.46875 2.78125 -38.46875 Z M 2.0625 -6.84375 C 2.019531 -6.84375 1.972656 -6.832031 1.921875 -6.8125 C 1.878906 -6.789062 1.8125 -6.78125 1.71875 -6.78125 C 1.71875 -6.59375 1.703125 -6.378906 1.671875 -6.140625 C 1.648438 -5.898438 1.664062 -5.660156 1.71875 -5.421875 C 1.851562 -4.660156 2.078125 -3.945312 2.390625 -3.28125 C 2.703125 -2.613281 3.191406 -2.039062 3.859375 -1.5625 C 4.191406 -1.375 4.535156 -1.242188 4.890625 -1.171875 C 5.242188 -1.109375 5.632812 -1.21875 6.0625 -1.5 C 5.488281 -1.78125 4.953125 -2.0625 4.453125 -2.34375 C 3.953125 -2.632812 3.585938 -3.066406 3.359375 -3.640625 C 2.878906 -4.734375 2.445312 -5.800781 2.0625 -6.84375 Z M 16.203125 -15.0625 C 17.003906 -14.863281 17.65625 -14.953125 18.15625 -15.328125 C 18.65625 -15.710938 19.097656 -16.171875 19.484375 -16.703125 C 19.722656 -17.078125 19.890625 -17.476562 19.984375 -17.90625 C 20.078125 -18.332031 19.882812 -18.832031 19.40625 -19.40625 C 19.457031 -18.550781 19.300781 -17.875 18.9375 -17.375 C 18.582031 -16.875 18.144531 -16.46875 17.625 -16.15625 C 17.101562 -15.851562 16.628906 -15.488281 16.203125 -15.0625 Z M 21.265625 -41.453125 C 22.503906 -40.984375 23.570312 -41.175781 24.46875 -42.03125 C 24.945312 -42.457031 25.113281 -42.882812 24.96875 -43.3125 C 24.40625 -43.03125 23.8125 -42.734375 23.1875 -42.421875 C 22.570312 -42.109375 21.929688 -41.785156 21.265625 -41.453125 Z M 21.265625 -41.453125 "/></g></g></g></g><g fill="#000000" fill-opacity="1"><g transform="translate(28.691941, 61.462633)"><g><path d="M 11.84375 -7.640625 C 11.988281 -7.585938 12.117188 -7.550781 12.234375 -7.53125 C 12.359375 -7.507812 12.441406 -7.5 12.484375 -7.5 C 14.335938 -7.632812 16.191406 -7.628906 18.046875 -7.484375 C 19.910156 -7.347656 21.769531 -7.1875 23.625 -7 C 23.957031 -7 24.289062 -7 24.625 -7 C 24.957031 -7 25.289062 -7 25.625 -7 C 26.613281 -6.945312 27.5 -6.625 28.28125 -6.03125 C 29.070312 -5.4375 29.613281 -4.660156 29.90625 -3.703125 C 30.1875 -2.804688 30.195312 -1.90625 29.9375 -1 C 29.675781 -0.09375 29.164062 0.664062 28.40625 1.28125 C 27.875 1.757812 27.273438 2.066406 26.609375 2.203125 C 25.953125 2.347656 25.289062 2.398438 24.625 2.359375 C 23.664062 2.265625 22.722656 2.117188 21.796875 1.921875 C 20.867188 1.734375 19.929688 1.59375 18.984375 1.5 C 16.796875 1.164062 14.628906 1.007812 12.484375 1.03125 C 10.347656 1.0625 8.1875 1.265625 6 1.640625 C 4.707031 1.878906 3.492188 1.851562 2.359375 1.5625 C 1.066406 1.238281 0.304688 0.382812 0.078125 -1 C 0.0234375 -1.664062 0.0546875 -2.296875 0.171875 -2.890625 C 0.296875 -3.484375 0.664062 -3.945312 1.28125 -4.28125 C 2.28125 -4.851562 2.78125 -5.757812 2.78125 -7 C 2.738281 -8.945312 2.738281 -10.894531 2.78125 -12.84375 C 2.832031 -14.789062 2.859375 -16.71875 2.859375 -18.625 C 2.898438 -21.332031 2.921875 -24.054688 2.921875 -26.796875 C 2.921875 -29.535156 2.945312 -32.257812 3 -34.96875 C 3.039062 -36.820312 3.085938 -38.675781 3.140625 -40.53125 C 3.191406 -42.382812 3.238281 -44.238281 3.28125 -46.09375 C 3.28125 -46.71875 3.398438 -47.382812 3.640625 -48.09375 C 3.972656 -49.09375 4.757812 -49.640625 6 -49.734375 C 7.1875 -49.828125 7.992188 -49.351562 8.421875 -48.3125 C 8.796875 -47.550781 9.054688 -46.765625 9.203125 -45.953125 C 9.390625 -44.484375 9.566406 -43 9.734375 -41.5 C 9.898438 -40 10.054688 -38.507812 10.203125 -37.03125 C 10.347656 -35.363281 10.476562 -33.675781 10.59375 -31.96875 C 10.71875 -30.257812 10.828125 -28.570312 10.921875 -26.90625 C 10.960938 -26 11.003906 -25.082031 11.046875 -24.15625 C 11.097656 -23.226562 11.148438 -22.289062 11.203125 -21.34375 C 11.296875 -19.25 11.390625 -17.140625 11.484375 -15.015625 C 11.578125 -12.898438 11.648438 -10.796875 11.703125 -8.703125 C 11.753906 -8.515625 11.78125 -8.347656 11.78125 -8.203125 C 11.78125 -8.066406 11.800781 -7.878906 11.84375 -7.640625 Z M 24.625 1.140625 C 25.90625 1.617188 27.046875 1.238281 28.046875 0 C 28.953125 -1.1875 29.09375 -2.28125 28.46875 -3.28125 C 28.28125 -2.132812 27.828125 -1.226562 27.109375 -0.5625 C 26.398438 0.09375 25.570312 0.660156 24.625 1.140625 Z M 4.78125 -43.453125 C 4.832031 -43.742188 4.878906 -44.03125 4.921875 -44.3125 C 4.972656 -44.601562 5.019531 -44.890625 5.0625 -45.171875 C 5.15625 -45.785156 5.273438 -46.390625 5.421875 -46.984375 C 5.566406 -47.578125 5.925781 -48.09375 6.5 -48.53125 C 6.5 -48.53125 6.5 -48.5625 6.5 -48.625 C 6.5 -48.695312 6.5 -48.757812 6.5 -48.8125 C 6.164062 -48.90625 5.890625 -48.890625 5.671875 -48.765625 C 5.460938 -48.648438 5.257812 -48.5 5.0625 -48.3125 C 4.59375 -47.832031 4.304688 -47.066406 4.203125 -46.015625 C 4.109375 -44.972656 4.300781 -44.117188 4.78125 -43.453125 Z M 1.5 -3 C 0.882812 -1.664062 1.144531 -0.546875 2.28125 0.359375 C 2.707031 0.691406 3.191406 0.894531 3.734375 0.96875 C 4.285156 1.039062 4.753906 0.957031 5.140625 0.71875 C 4.753906 0.476562 4.347656 0.285156 3.921875 0.140625 C 3.492188 -0.00390625 3.140625 -0.21875 2.859375 -0.5 C 2.523438 -0.832031 2.273438 -1.210938 2.109375 -1.640625 C 1.941406 -2.066406 1.738281 -2.519531 1.5 -3 Z M 1.5 -3 "/></g></g></g><g fill="#000000" fill-opacity="1"><g transform="translate(61.016861, 61.462633)"><g><path d="M 9.78125 -9.640625 C 10.019531 -9.679688 10.21875 -9.691406 10.375 -9.671875 C 10.539062 -9.648438 10.722656 -9.660156 10.921875 -9.703125 C 15.054688 -10.796875 18.550781 -12.863281 21.40625 -15.90625 C 23.976562 -18.664062 25.21875 -21.953125 25.125 -25.765625 C 25.070312 -27.859375 24.664062 -29.796875 23.90625 -31.578125 C 23.144531 -33.359375 22.003906 -34.941406 20.484375 -36.328125 C 19.148438 -37.554688 17.707031 -38.625 16.15625 -39.53125 C 14.613281 -40.4375 12.914062 -41.03125 11.0625 -41.3125 C 10.769531 -41.40625 10.53125 -41.453125 10.34375 -41.453125 C 8.96875 -41.835938 8.28125 -42.648438 8.28125 -43.890625 C 8.1875 -45.117188 8.804688 -45.972656 10.140625 -46.453125 C 10.847656 -46.691406 11.554688 -46.847656 12.265625 -46.921875 C 12.984375 -46.992188 13.703125 -46.984375 14.421875 -46.890625 C 16.796875 -46.503906 19.0625 -45.832031 21.21875 -44.875 C 23.382812 -43.925781 25.347656 -42.597656 27.109375 -40.890625 C 30.203125 -37.941406 32.179688 -34.375 33.046875 -30.1875 C 33.609375 -27.570312 33.796875 -24.988281 33.609375 -22.4375 C 33.421875 -19.894531 32.707031 -17.410156 31.46875 -14.984375 C 30.46875 -13.078125 29.226562 -11.375 27.75 -9.875 C 26.28125 -8.382812 24.640625 -7.066406 22.828125 -5.921875 C 20.691406 -4.585938 18.46875 -3.523438 16.15625 -2.734375 C 13.851562 -1.953125 11.441406 -1.445312 8.921875 -1.21875 C 8.441406 -1.164062 7.925781 -1.148438 7.375 -1.171875 C 6.832031 -1.203125 6.300781 -1.238281 5.78125 -1.28125 C 4.257812 -1.425781 3.035156 -1.972656 2.109375 -2.921875 C 1.179688 -3.878906 0.644531 -5.046875 0.5 -6.421875 C 0.3125 -7.609375 0.191406 -8.820312 0.140625 -10.0625 C 0.0976562 -11.300781 0.0507812 -12.515625 0 -13.703125 C 0 -14.890625 0.0195312 -16.066406 0.0625 -17.234375 C 0.113281 -18.398438 0.164062 -19.578125 0.21875 -20.765625 C 0.3125 -23.003906 0.367188 -25.253906 0.390625 -27.515625 C 0.410156 -29.773438 0.445312 -32.019531 0.5 -34.25 C 0.550781 -35.769531 0.625 -37.289062 0.71875 -38.8125 C 0.8125 -40.34375 0.90625 -41.84375 1 -43.3125 C 1.09375 -44.125 1.398438 -44.742188 1.921875 -45.171875 C 2.453125 -45.597656 3.097656 -45.765625 3.859375 -45.671875 C 4.898438 -45.523438 5.613281 -44.8125 6 -43.53125 C 6.375 -42.195312 6.65625 -40.835938 6.84375 -39.453125 C 7.039062 -38.078125 7.234375 -36.703125 7.421875 -35.328125 C 7.609375 -33.804688 7.785156 -32.269531 7.953125 -30.71875 C 8.117188 -29.175781 8.25 -27.644531 8.34375 -26.125 C 8.582031 -23.644531 8.785156 -21.15625 8.953125 -18.65625 C 9.117188 -16.164062 9.296875 -13.65625 9.484375 -11.125 C 9.535156 -10.9375 9.582031 -10.710938 9.625 -10.453125 C 9.675781 -10.191406 9.726562 -9.921875 9.78125 -9.640625 Z M 1.5625 -7.921875 C 1.519531 -7.066406 1.648438 -6.257812 1.953125 -5.5 C 2.265625 -4.738281 2.753906 -4.09375 3.421875 -3.5625 C 4.660156 -2.519531 6.1875 -2.210938 8 -2.640625 C 7.132812 -2.921875 6.425781 -3.132812 5.875 -3.28125 C 5.332031 -3.425781 4.847656 -3.613281 4.421875 -3.84375 C 3.992188 -4.082031 3.566406 -4.507812 3.140625 -5.125 C 2.710938 -5.75 2.1875 -6.679688 1.5625 -7.921875 Z M 2.140625 -41.25 C 2.285156 -41.625 2.40625 -41.988281 2.5 -42.34375 C 2.59375 -42.707031 2.734375 -43.03125 2.921875 -43.3125 C 3.117188 -43.550781 3.359375 -43.765625 3.640625 -43.953125 C 3.921875 -44.148438 4.207031 -44.34375 4.5 -44.53125 C 3.738281 -44.90625 3.117188 -44.859375 2.640625 -44.390625 C 1.785156 -43.628906 1.617188 -42.582031 2.140625 -41.25 Z M 12.34375 -42.3125 C 12.007812 -42.550781 11.6875 -42.738281 11.375 -42.875 C 11.070312 -43.019531 10.800781 -43.191406 10.5625 -43.390625 C 10.375 -43.628906 10.207031 -43.898438 10.0625 -44.203125 C 9.914062 -44.515625 9.75 -44.835938 9.5625 -45.171875 C 9.132812 -44.554688 9.160156 -43.890625 9.640625 -43.171875 C 10.109375 -42.316406 11.007812 -42.03125 12.34375 -42.3125 Z M 12.34375 -42.3125 "/></g></g></g><g fill="#000000" fill-opacity="1"><g transform="translate(96.909664, 61.462633)"><g><path d="M 37.03125 -40.75 C 36.84375 -40.457031 36.722656 -40.242188 36.671875 -40.109375 C 36.148438 -39.203125 35.4375 -38.75 34.53125 -38.75 C 33.488281 -38.75 32.726562 -39.175781 32.25 -40.03125 C 32.207031 -40.125 32.160156 -40.226562 32.109375 -40.34375 C 32.066406 -40.46875 31.992188 -40.578125 31.890625 -40.671875 C 31.179688 -42.484375 29.851562 -43.269531 27.90625 -43.03125 C 26.613281 -42.84375 25.410156 -42.5 24.296875 -42 C 23.179688 -41.5 22.078125 -40.914062 20.984375 -40.25 C 19.648438 -39.394531 18.363281 -38.441406 17.125 -37.390625 C 15.882812 -36.347656 14.765625 -35.160156 13.765625 -33.828125 C 13.203125 -33.109375 12.632812 -32.273438 12.0625 -31.328125 C 11.769531 -30.753906 11.625 -30.113281 11.625 -29.40625 C 11.582031 -27.6875 12.296875 -26.566406 13.765625 -26.046875 C 15.003906 -25.566406 16.265625 -25.113281 17.546875 -24.6875 C 18.835938 -24.257812 20.101562 -23.832031 21.34375 -23.40625 C 22.769531 -22.882812 24.179688 -22.347656 25.578125 -21.796875 C 26.984375 -21.253906 28.351562 -20.578125 29.6875 -19.765625 C 30.632812 -19.191406 31.5 -18.5625 32.28125 -17.875 C 33.070312 -17.1875 33.773438 -16.363281 34.390625 -15.40625 C 35.628906 -13.414062 36.082031 -11.335938 35.75 -9.171875 C 35.414062 -7.003906 34.347656 -5.179688 32.546875 -3.703125 C 28.972656 -0.710938 24.90625 0.78125 20.34375 0.78125 C 17.675781 0.78125 15.101562 0.160156 12.625 -1.078125 C 11.0625 -1.835938 10.078125 -2.960938 9.671875 -4.453125 C 9.265625 -5.953125 9.535156 -7.460938 10.484375 -8.984375 C 11.015625 -9.847656 11.609375 -10.660156 12.265625 -11.421875 C 12.929688 -12.179688 13.671875 -12.867188 14.484375 -13.484375 C 14.722656 -13.628906 14.945312 -13.796875 15.15625 -13.984375 C 15.375 -14.171875 15.648438 -14.382812 15.984375 -14.625 C 15.648438 -14.71875 15.363281 -14.8125 15.125 -14.90625 C 14.882812 -15.007812 14.648438 -15.082031 14.421875 -15.125 C 13.460938 -15.457031 12.484375 -15.765625 11.484375 -16.046875 C 10.484375 -16.335938 9.484375 -16.648438 8.484375 -16.984375 C 7.296875 -17.460938 6.128906 -18.03125 4.984375 -18.6875 C 3.847656 -19.351562 2.875 -20.210938 2.0625 -21.265625 C 0.0195312 -23.929688 -0.5 -26.878906 0.5 -30.109375 C 1.019531 -31.628906 1.679688 -33.03125 2.484375 -34.3125 C 3.296875 -35.601562 4.203125 -36.84375 5.203125 -38.03125 C 7.066406 -40.125 9.101562 -41.976562 11.3125 -43.59375 C 13.519531 -45.21875 15.929688 -46.550781 18.546875 -47.59375 C 20.265625 -48.257812 21.988281 -48.769531 23.71875 -49.125 C 25.457031 -49.488281 27.253906 -49.523438 29.109375 -49.234375 C 30.203125 -49.046875 31.296875 -48.796875 32.390625 -48.484375 C 33.484375 -48.179688 34.4375 -47.550781 35.25 -46.59375 C 35.582031 -46.21875 35.890625 -45.800781 36.171875 -45.34375 C 36.460938 -44.894531 36.65625 -44.410156 36.75 -43.890625 C 36.75 -43.835938 36.785156 -43.773438 36.859375 -43.703125 C 36.929688 -43.628906 36.988281 -43.570312 37.03125 -43.53125 C 37.03125 -43.050781 37.03125 -42.582031 37.03125 -42.125 C 37.03125 -41.675781 37.03125 -41.21875 37.03125 -40.75 Z M 14.984375 -6.640625 C 15.128906 -6.441406 15.222656 -6.34375 15.265625 -6.34375 C 15.359375 -6.25 15.429688 -6.203125 15.484375 -6.203125 C 17.671875 -5.679688 19.710938 -5.71875 21.609375 -6.3125 C 23.515625 -6.90625 25.328125 -7.867188 27.046875 -9.203125 C 27.710938 -9.722656 27.664062 -10.25 26.90625 -10.78125 C 26.425781 -11.15625 25.9375 -11.472656 25.4375 -11.734375 C 24.9375 -11.992188 24.425781 -12.289062 23.90625 -12.625 C 23.332031 -12.914062 22.785156 -12.867188 22.265625 -12.484375 C 21.410156 -11.960938 20.550781 -11.425781 19.6875 -10.875 C 18.832031 -10.332031 18.003906 -9.773438 17.203125 -9.203125 C 16.203125 -8.492188 15.460938 -7.640625 14.984375 -6.640625 Z M 7.203125 -19.90625 C 7.203125 -20.050781 7.25 -20.171875 7.34375 -20.265625 C 7.0625 -20.503906 6.789062 -20.753906 6.53125 -21.015625 C 6.269531 -21.273438 5.992188 -21.523438 5.703125 -21.765625 C 4.179688 -23.046875 3.28125 -24.660156 3 -26.609375 C 2.945312 -27.085938 2.921875 -27.550781 2.921875 -28 C 2.921875 -28.457031 2.898438 -28.925781 2.859375 -29.40625 C 2.859375 -29.539062 2.8125 -29.753906 2.71875 -30.046875 C 2.238281 -28.859375 2.054688 -27.703125 2.171875 -26.578125 C 2.296875 -25.460938 2.59375 -24.359375 3.0625 -23.265625 C 3.394531 -22.640625 3.800781 -22.085938 4.28125 -21.609375 C 4.757812 -21.140625 5.304688 -20.71875 5.921875 -20.34375 C 6.109375 -20.238281 6.320312 -20.160156 6.5625 -20.109375 C 6.800781 -20.066406 7.015625 -20 7.203125 -19.90625 Z M 13.421875 -2.28125 C 12.796875 -3.28125 12.335938 -4.03125 12.046875 -4.53125 C 11.765625 -5.03125 11.613281 -5.457031 11.59375 -5.8125 C 11.570312 -6.164062 11.617188 -6.59375 11.734375 -7.09375 C 11.859375 -7.59375 11.988281 -8.320312 12.125 -9.28125 C 11.507812 -8.894531 11.082031 -8.285156 10.84375 -7.453125 C 10.601562 -6.617188 10.628906 -5.726562 10.921875 -4.78125 C 11.390625 -3.113281 12.222656 -2.28125 13.421875 -2.28125 Z M 32.046875 -43.390625 C 31.847656 -43.296875 31.726562 -43.195312 31.6875 -43.09375 C 31.820312 -42.757812 31.972656 -42.414062 32.140625 -42.0625 C 32.304688 -41.707031 32.488281 -41.363281 32.6875 -41.03125 C 32.820312 -40.84375 32.992188 -40.664062 33.203125 -40.5 C 33.421875 -40.332031 33.628906 -40.175781 33.828125 -40.03125 C 34.585938 -39.695312 35.273438 -39.9375 35.890625 -40.75 C 35.421875 -40.695312 34.984375 -40.71875 34.578125 -40.8125 C 34.171875 -40.90625 33.820312 -41.117188 33.53125 -41.453125 C 33.300781 -41.742188 33.050781 -42.054688 32.78125 -42.390625 C 32.519531 -42.722656 32.273438 -43.054688 32.046875 -43.390625 Z M 28.046875 -8.421875 C 29.328125 -9.128906 29.78125 -10.03125 29.40625 -11.125 C 29.113281 -12.082031 28.46875 -12.515625 27.46875 -12.421875 C 27.894531 -11.847656 28.179688 -11.394531 28.328125 -11.0625 C 28.472656 -10.726562 28.519531 -10.394531 28.46875 -10.0625 C 28.425781 -9.726562 28.285156 -9.179688 28.046875 -8.421875 Z M 28.046875 -8.421875 "/></g></g></g><g fill="#000000" fill-opacity="1"><g transform="translate(136.0849, 61.462633)"><g><path d="M 12.765625 -25.125 C 12.722656 -24.882812 12.65625 -24.65625 12.5625 -24.4375 C 12.46875 -24.226562 12.375 -24.003906 12.28125 -23.765625 C 11.375 -21.285156 10.46875 -18.796875 9.5625 -16.296875 C 8.65625 -13.804688 7.726562 -11.300781 6.78125 -8.78125 C 6.6875 -8.445312 6.554688 -8.113281 6.390625 -7.78125 C 6.222656 -7.445312 6.039062 -7.132812 5.84375 -6.84375 C 4.945312 -5.414062 3.804688 -4.894531 2.421875 -5.28125 C 1.140625 -5.5625 0.378906 -6.515625 0.140625 -8.140625 C 0.046875 -8.898438 0.046875 -9.632812 0.140625 -10.34375 C 0.234375 -11.0625 0.328125 -11.800781 0.421875 -12.5625 C 1.085938 -15.988281 1.847656 -19.398438 2.703125 -22.796875 C 3.566406 -26.203125 4.59375 -29.566406 5.78125 -32.890625 C 6.207031 -34.128906 6.679688 -35.34375 7.203125 -36.53125 C 7.734375 -37.71875 8.328125 -38.882812 8.984375 -40.03125 C 9.421875 -40.75 9.9375 -41.34375 10.53125 -41.8125 C 11.125 -42.289062 11.867188 -42.601562 12.765625 -42.75 C 14.765625 -42.976562 16.289062 -42.285156 17.34375 -40.671875 C 17.8125 -40.003906 18.191406 -39.269531 18.484375 -38.46875 C 19.722656 -35.039062 20.675781 -31.492188 21.34375 -27.828125 C 21.570312 -26.453125 21.789062 -25.070312 22 -23.6875 C 22.21875 -22.3125 22.445312 -20.929688 22.6875 -19.546875 C 22.738281 -19.359375 22.785156 -19.179688 22.828125 -19.015625 C 22.878906 -18.847656 22.976562 -18.671875 23.125 -18.484375 C 23.3125 -18.765625 23.476562 -19.144531 23.625 -19.625 C 24.71875 -22.757812 25.8125 -25.894531 26.90625 -29.03125 C 28 -32.175781 29.066406 -35.34375 30.109375 -38.53125 C 30.585938 -39.863281 31.132812 -41.148438 31.75 -42.390625 C 32.375 -43.628906 33.132812 -44.769531 34.03125 -45.8125 C 34.84375 -46.757812 35.75 -47.378906 36.75 -47.671875 C 38.414062 -48.097656 39.816406 -47.738281 40.953125 -46.59375 C 41.484375 -46.125 41.925781 -45.566406 42.28125 -44.921875 C 42.632812 -44.273438 42.90625 -43.617188 43.09375 -42.953125 C 43.53125 -41.722656 43.863281 -40.476562 44.09375 -39.21875 C 44.332031 -37.957031 44.550781 -36.679688 44.75 -35.390625 C 44.976562 -33.492188 45.257812 -31.59375 45.59375 -29.6875 C 45.925781 -27.78125 46.191406 -25.851562 46.390625 -23.90625 C 46.617188 -21.53125 46.835938 -19.128906 47.046875 -16.703125 C 47.265625 -14.273438 47.472656 -11.867188 47.671875 -9.484375 C 47.710938 -9.148438 47.742188 -8.804688 47.765625 -8.453125 C 47.796875 -8.097656 47.832031 -7.726562 47.875 -7.34375 C 48.019531 -6.300781 47.878906 -5.28125 47.453125 -4.28125 C 46.597656 -2.238281 45.171875 -1.144531 43.171875 -1 C 42.171875 -0.945312 41.273438 -1.144531 40.484375 -1.59375 C 39.703125 -2.050781 39.050781 -2.707031 38.53125 -3.5625 C 38.101562 -4.320312 37.816406 -5.203125 37.671875 -6.203125 C 37.484375 -8.296875 37.269531 -10.398438 37.03125 -12.515625 C 36.789062 -14.640625 36.578125 -16.769531 36.390625 -18.90625 C 36.242188 -20.757812 36.125 -22.625 36.03125 -24.5 C 35.9375 -26.382812 35.84375 -28.28125 35.75 -30.1875 C 35.75 -30.375 35.738281 -30.5625 35.71875 -30.75 C 35.695312 -30.945312 35.660156 -31.160156 35.609375 -31.390625 C 35.367188 -31.203125 35.210938 -31.015625 35.140625 -30.828125 C 35.066406 -30.640625 35.007812 -30.445312 34.96875 -30.25 C 34.207031 -27.875 33.457031 -25.484375 32.71875 -23.078125 C 31.976562 -20.679688 31.226562 -18.289062 30.46875 -15.90625 C 29.945312 -14.195312 29.421875 -12.5 28.890625 -10.8125 C 28.367188 -9.125 27.847656 -7.421875 27.328125 -5.703125 C 26.898438 -4.328125 26.351562 -3.019531 25.6875 -1.78125 C 25.164062 -0.875 24.460938 -0.234375 23.578125 0.140625 C 22.703125 0.523438 21.789062 0.597656 20.84375 0.359375 C 20.3125 0.210938 19.84375 -0.0234375 19.4375 -0.359375 C 19.039062 -0.691406 18.675781 -1.09375 18.34375 -1.5625 C 17.863281 -2.28125 17.503906 -3.039062 17.265625 -3.84375 C 17.023438 -4.65625 16.8125 -5.46875 16.625 -6.28125 C 16.34375 -7.707031 16.082031 -9.144531 15.84375 -10.59375 C 15.601562 -12.039062 15.34375 -13.503906 15.0625 -14.984375 C 14.820312 -16.503906 14.546875 -18.023438 14.234375 -19.546875 C 13.921875 -21.078125 13.625 -22.578125 13.34375 -24.046875 C 13.289062 -24.234375 13.238281 -24.410156 13.1875 -24.578125 C 13.144531 -24.742188 13.101562 -24.925781 13.0625 -25.125 C 13.007812 -25.125 12.972656 -25.125 12.953125 -25.125 C 12.929688 -25.125 12.867188 -25.125 12.765625 -25.125 Z M 14.625 -41.03125 C 14.4375 -41.363281 14.242188 -41.550781 14.046875 -41.59375 C 13.859375 -41.644531 13.648438 -41.648438 13.421875 -41.609375 C 12.890625 -41.503906 12.410156 -41.359375 11.984375 -41.171875 C 10.941406 -40.554688 10.125 -39.757812 9.53125 -38.78125 C 8.9375 -37.8125 8.492188 -36.753906 8.203125 -35.609375 C 8.203125 -35.609375 8.273438 -35.414062 8.421875 -35.03125 C 8.660156 -35.414062 8.882812 -35.773438 9.09375 -36.109375 C 9.3125 -36.441406 9.515625 -36.773438 9.703125 -37.109375 C 10.316406 -38.054688 10.96875 -38.910156 11.65625 -39.671875 C 12.351562 -40.429688 13.34375 -40.882812 14.625 -41.03125 Z M 39.25 -9.140625 C 39.15625 -9.085938 39.082031 -9.0625 39.03125 -9.0625 C 38.988281 -9.0625 38.96875 -9.0625 38.96875 -9.0625 C 38.863281 -8.875 38.8125 -8.753906 38.8125 -8.703125 C 38.625 -6.660156 39.195312 -4.878906 40.53125 -3.359375 C 40.769531 -3.160156 41.03125 -2.976562 41.3125 -2.8125 C 41.601562 -2.644531 41.890625 -2.492188 42.171875 -2.359375 C 42.359375 -2.304688 42.570312 -2.28125 42.8125 -2.28125 C 43.050781 -2.28125 43.289062 -2.425781 43.53125 -2.71875 C 42.101562 -3.375 41.09375 -4.257812 40.5 -5.375 C 39.90625 -6.5 39.488281 -7.753906 39.25 -9.140625 Z M 32.25 -39.671875 C 32.445312 -39.578125 32.546875 -39.53125 32.546875 -39.53125 C 32.640625 -39.675781 32.734375 -39.796875 32.828125 -39.890625 C 32.921875 -39.984375 32.992188 -40.101562 33.046875 -40.25 C 33.273438 -40.625 33.492188 -41 33.703125 -41.375 C 33.921875 -41.757812 34.128906 -42.144531 34.328125 -42.53125 C 34.753906 -43.289062 35.238281 -43.988281 35.78125 -44.625 C 36.332031 -45.269531 37.015625 -45.757812 37.828125 -46.09375 C 37.867188 -46.09375 37.898438 -46.128906 37.921875 -46.203125 C 37.953125 -46.273438 37.988281 -46.335938 38.03125 -46.390625 C 37.65625 -46.523438 37.40625 -46.601562 37.28125 -46.625 C 37.164062 -46.65625 36.988281 -46.597656 36.75 -46.453125 C 36.414062 -46.265625 36.09375 -46.050781 35.78125 -45.8125 C 35.476562 -45.570312 35.207031 -45.332031 34.96875 -45.09375 C 34.34375 -44.425781 33.828125 -43.6875 33.421875 -42.875 C 33.023438 -42.070312 32.660156 -41.242188 32.328125 -40.390625 C 32.273438 -40.296875 32.257812 -40.175781 32.28125 -40.03125 C 32.3125 -39.882812 32.300781 -39.765625 32.25 -39.671875 Z M 18.625 -7.5625 C 18.71875 -6.519531 18.894531 -5.519531 19.15625 -4.5625 C 19.414062 -3.613281 19.859375 -2.734375 20.484375 -1.921875 C 20.765625 -1.585938 21.109375 -1.347656 21.515625 -1.203125 C 21.921875 -1.066406 22.335938 -0.972656 22.765625 -0.921875 C 22.859375 -0.878906 22.960938 -0.90625 23.078125 -1 C 23.203125 -1.09375 23.40625 -1.164062 23.6875 -1.21875 C 22.644531 -1.644531 21.847656 -2.210938 21.296875 -2.921875 C 20.753906 -3.640625 20.289062 -4.414062 19.90625 -5.25 C 19.53125 -6.082031 19.101562 -6.851562 18.625 -7.5625 Z M 1.921875 -12.625 C 1.304688 -11.820312 1.046875 -10.847656 1.140625 -9.703125 C 1.234375 -8.566406 1.59375 -7.6875 2.21875 -7.0625 C 2.445312 -6.875 2.65625 -6.707031 2.84375 -6.5625 C 3.039062 -6.414062 3.28125 -6.394531 3.5625 -6.5 C 3.332031 -7.019531 3.082031 -7.515625 2.8125 -7.984375 C 2.550781 -8.460938 2.351562 -8.941406 2.21875 -9.421875 C 2.070312 -9.941406 2 -10.472656 2 -11.015625 C 2 -11.566406 1.972656 -12.101562 1.921875 -12.625 Z M 1.921875 -12.625 "/></g></g></g><g fill="#000000" fill-opacity="1"><g transform="translate(186.177841, 61.462633)"><g><path d="M 9.78125 -9.640625 C 10.019531 -9.679688 10.21875 -9.691406 10.375 -9.671875 C 10.539062 -9.648438 10.722656 -9.660156 10.921875 -9.703125 C 15.054688 -10.796875 18.550781 -12.863281 21.40625 -15.90625 C 23.976562 -18.664062 25.21875 -21.953125 25.125 -25.765625 C 25.070312 -27.859375 24.664062 -29.796875 23.90625 -31.578125 C 23.144531 -33.359375 22.003906 -34.941406 20.484375 -36.328125 C 19.148438 -37.554688 17.707031 -38.625 16.15625 -39.53125 C 14.613281 -40.4375 12.914062 -41.03125 11.0625 -41.3125 C 10.769531 -41.40625 10.53125 -41.453125 10.34375 -41.453125 C 8.96875 -41.835938 8.28125 -42.648438 8.28125 -43.890625 C 8.1875 -45.117188 8.804688 -45.972656 10.140625 -46.453125 C 10.847656 -46.691406 11.554688 -46.847656 12.265625 -46.921875 C 12.984375 -46.992188 13.703125 -46.984375 14.421875 -46.890625 C 16.796875 -46.503906 19.0625 -45.832031 21.21875 -44.875 C 23.382812 -43.925781 25.347656 -42.597656 27.109375 -40.890625 C 30.203125 -37.941406 32.179688 -34.375 33.046875 -30.1875 C 33.609375 -27.570312 33.796875 -24.988281 33.609375 -22.4375 C 33.421875 -19.894531 32.707031 -17.410156 31.46875 -14.984375 C 30.46875 -13.078125 29.226562 -11.375 27.75 -9.875 C 26.28125 -8.382812 24.640625 -7.066406 22.828125 -5.921875 C 20.691406 -4.585938 18.46875 -3.523438 16.15625 -2.734375 C 13.851562 -1.953125 11.441406 -1.445312 8.921875 -1.21875 C 8.441406 -1.164062 7.925781 -1.148438 7.375 -1.171875 C 6.832031 -1.203125 6.300781 -1.238281 5.78125 -1.28125 C 4.257812 -1.425781 3.035156 -1.972656 2.109375 -2.921875 C 1.179688 -3.878906 0.644531 -5.046875 0.5 -6.421875 C 0.3125 -7.609375 0.191406 -8.820312 0.140625 -10.0625 C 0.0976562 -11.300781 0.0507812 -12.515625 0 -13.703125 C 0 -14.890625 0.0195312 -16.066406 0.0625 -17.234375 C 0.113281 -18.398438 0.164062 -19.578125 0.21875 -20.765625 C 0.3125 -23.003906 0.367188 -25.253906 0.390625 -27.515625 C 0.410156 -29.773438 0.445312 -32.019531 0.5 -34.25 C 0.550781 -35.769531 0.625 -37.289062 0.71875 -38.8125 C 0.8125 -40.34375 0.90625 -41.84375 1 -43.3125 C 1.09375 -44.125 1.398438 -44.742188 1.921875 -45.171875 C 2.453125 -45.597656 3.097656 -45.765625 3.859375 -45.671875 C 4.898438 -45.523438 5.613281 -44.8125 6 -43.53125 C 6.375 -42.195312 6.65625 -40.835938 6.84375 -39.453125 C 7.039062 -38.078125 7.234375 -36.703125 7.421875 -35.328125 C 7.609375 -33.804688 7.785156 -32.269531 7.953125 -30.71875 C 8.117188 -29.175781 8.25 -27.644531 8.34375 -26.125 C 8.582031 -23.644531 8.785156 -21.15625 8.953125 -18.65625 C 9.117188 -16.164062 9.296875 -13.65625 9.484375 -11.125 C 9.535156 -10.9375 9.582031 -10.710938 9.625 -10.453125 C 9.675781 -10.191406 9.726562 -9.921875 9.78125 -9.640625 Z M 1.5625 -7.921875 C 1.519531 -7.066406 1.648438 -6.257812 1.953125 -5.5 C 2.265625 -4.738281 2.753906 -4.09375 3.421875 -3.5625 C 4.660156 -2.519531 6.1875 -2.210938 8 -2.640625 C 7.132812 -2.921875 6.425781 -3.132812 5.875 -3.28125 C 5.332031 -3.425781 4.847656 -3.613281 4.421875 -3.84375 C 3.992188 -4.082031 3.566406 -4.507812 3.140625 -5.125 C 2.710938 -5.75 2.1875 -6.679688 1.5625 -7.921875 Z M 2.140625 -41.25 C 2.285156 -41.625 2.40625 -41.988281 2.5 -42.34375 C 2.59375 -42.707031 2.734375 -43.03125 2.921875 -43.3125 C 3.117188 -43.550781 3.359375 -43.765625 3.640625 -43.953125 C 3.921875 -44.148438 4.207031 -44.34375 4.5 -44.53125 C 3.738281 -44.90625 3.117188 -44.859375 2.640625 -44.390625 C 1.785156 -43.628906 1.617188 -42.582031 2.140625 -41.25 Z M 12.34375 -42.3125 C 12.007812 -42.550781 11.6875 -42.738281 11.375 -42.875 C 11.070312 -43.019531 10.800781 -43.191406 10.5625 -43.390625 C 10.375 -43.628906 10.207031 -43.898438 10.0625 -44.203125 C 9.914062 -44.515625 9.75 -44.835938 9.5625 -45.171875 C 9.132812 -44.554688 9.160156 -43.890625 9.640625 -43.171875 C 10.109375 -42.316406 11.007812 -42.03125 12.34375 -42.3125 Z M 12.34375 -42.3125 "/></g></g></g><g fill="#000000" fill-opacity="1"><g transform="translate(222.070644, 61.462633)"><g><path d="M 15.203125 -48.453125 C 15.441406 -48.398438 15.644531 -48.328125 15.8125 -48.234375 C 15.976562 -48.140625 16.15625 -48.09375 16.34375 -48.09375 C 17.625 -47.90625 18.894531 -47.664062 20.15625 -47.375 C 21.414062 -47.09375 22.640625 -46.664062 23.828125 -46.09375 C 24.066406 -46 24.316406 -45.890625 24.578125 -45.765625 C 24.835938 -45.648438 25.066406 -45.5 25.265625 -45.3125 C 26.023438 -44.738281 26.367188 -44.023438 26.296875 -43.171875 C 26.222656 -42.316406 25.78125 -41.628906 24.96875 -41.109375 C 24.5 -40.773438 23.988281 -40.570312 23.4375 -40.5 C 22.894531 -40.425781 22.363281 -40.410156 21.84375 -40.453125 C 20.601562 -40.503906 19.351562 -40.550781 18.09375 -40.59375 C 16.832031 -40.644531 15.582031 -40.695312 14.34375 -40.75 C 13.726562 -40.789062 13.109375 -40.726562 12.484375 -40.5625 C 11.867188 -40.394531 11.273438 -40.195312 10.703125 -39.96875 C 9.703125 -39.488281 9.128906 -38.796875 8.984375 -37.890625 C 8.941406 -37.179688 8.882812 -36.457031 8.8125 -35.71875 C 8.738281 -34.976562 8.726562 -34.273438 8.78125 -33.609375 C 8.96875 -31.566406 9.128906 -29.519531 9.265625 -27.46875 C 9.410156 -25.425781 9.460938 -23.382812 9.421875 -21.34375 C 9.421875 -21.144531 9.429688 -20.914062 9.453125 -20.65625 C 9.472656 -20.394531 9.507812 -20.125 9.5625 -19.84375 C 9.800781 -19.9375 10.015625 -20.003906 10.203125 -20.046875 C 10.390625 -20.097656 10.582031 -20.144531 10.78125 -20.1875 C 11.632812 -20.570312 12.523438 -20.859375 13.453125 -21.046875 C 14.378906 -21.242188 15.296875 -21.363281 16.203125 -21.40625 C 17.203125 -21.550781 18.148438 -21.410156 19.046875 -20.984375 C 19.617188 -20.691406 20.082031 -20.304688 20.4375 -19.828125 C 20.800781 -19.359375 21.003906 -18.789062 21.046875 -18.125 C 21.191406 -16.644531 20.671875 -15.523438 19.484375 -14.765625 C 18.960938 -14.429688 18.390625 -14.191406 17.765625 -14.046875 C 17.148438 -13.910156 16.53125 -13.769531 15.90625 -13.625 C 14.289062 -13.289062 12.628906 -12.863281 10.921875 -12.34375 C 10.160156 -12.15625 9.726562 -11.960938 9.625 -11.765625 C 9.53125 -11.578125 9.460938 -11.128906 9.421875 -10.421875 C 9.421875 -9.796875 9.421875 -9.148438 9.421875 -8.484375 C 9.421875 -7.828125 9.421875 -7.164062 9.421875 -6.5 C 9.460938 -4.78125 9.054688 -3.160156 8.203125 -1.640625 C 7.585938 -0.453125 6.660156 0.1875 5.421875 0.28125 C 4.179688 0.375 3.132812 -0.0976562 2.28125 -1.140625 C 1.664062 -1.953125 1.203125 -2.773438 0.890625 -3.609375 C 0.578125 -4.441406 0.375 -5.332031 0.28125 -6.28125 C 0.09375 -8.519531 0.0078125 -10.753906 0.03125 -12.984375 C 0.0625 -15.222656 0.0976562 -17.457031 0.140625 -19.6875 C 0.191406 -20.789062 0.179688 -21.875 0.109375 -22.9375 C 0.0351562 -24.007812 0.0234375 -25.070312 0.078125 -26.125 C 0.171875 -28.207031 0.273438 -30.285156 0.390625 -32.359375 C 0.515625 -34.429688 0.671875 -36.488281 0.859375 -38.53125 C 1.097656 -41.050781 2 -43.117188 3.5625 -44.734375 C 5.132812 -46.359375 7.160156 -47.40625 9.640625 -47.875 C 10.015625 -47.976562 10.390625 -48.078125 10.765625 -48.171875 C 11.148438 -48.265625 11.535156 -48.359375 11.921875 -48.453125 C 12.441406 -48.453125 12.988281 -48.453125 13.5625 -48.453125 C 14.132812 -48.453125 14.679688 -48.453125 15.203125 -48.453125 Z M 2.78125 -38.46875 C 3.019531 -39.03125 3.222656 -39.5625 3.390625 -40.0625 C 3.554688 -40.5625 3.734375 -41.003906 3.921875 -41.390625 C 4.398438 -42.242188 5.019531 -43.097656 5.78125 -43.953125 C 6.113281 -44.285156 6.484375 -44.59375 6.890625 -44.875 C 7.296875 -45.164062 7.734375 -45.503906 8.203125 -45.890625 C 7.203125 -45.929688 6.226562 -45.535156 5.28125 -44.703125 C 4.332031 -43.867188 3.609375 -42.867188 3.109375 -41.703125 C 2.609375 -40.546875 2.5 -39.46875 2.78125 -38.46875 Z M 2.0625 -6.84375 C 2.019531 -6.84375 1.972656 -6.832031 1.921875 -6.8125 C 1.878906 -6.789062 1.8125 -6.78125 1.71875 -6.78125 C 1.71875 -6.59375 1.703125 -6.378906 1.671875 -6.140625 C 1.648438 -5.898438 1.664062 -5.660156 1.71875 -5.421875 C 1.851562 -4.660156 2.078125 -3.945312 2.390625 -3.28125 C 2.703125 -2.613281 3.191406 -2.039062 3.859375 -1.5625 C 4.191406 -1.375 4.535156 -1.242188 4.890625 -1.171875 C 5.242188 -1.109375 5.632812 -1.21875 6.0625 -1.5 C 5.488281 -1.78125 4.953125 -2.0625 4.453125 -2.34375 C 3.953125 -2.632812 3.585938 -3.066406 3.359375 -3.640625 C 2.878906 -4.734375 2.445312 -5.800781 2.0625 -6.84375 Z M 16.203125 -15.0625 C 17.003906 -14.863281 17.65625 -14.953125 18.15625 -15.328125 C 18.65625 -15.710938 19.097656 -16.171875 19.484375 -16.703125 C 19.722656 -17.078125 19.890625 -17.476562 19.984375 -17.90625 C 20.078125 -18.332031 19.882812 -18.832031 19.40625 -19.40625 C 19.457031 -18.550781 19.300781 -17.875 18.9375 -17.375 C 18.582031 -16.875 18.144531 -16.46875 17.625 -16.15625 C 17.101562 -15.851562 16.628906 -15.488281 16.203125 -15.0625 Z M 21.265625 -41.453125 C 22.503906 -40.984375 23.570312 -41.175781 24.46875 -42.03125 C 24.945312 -42.457031 25.113281 -42.882812 24.96875 -43.3125 C 24.40625 -43.03125 23.8125 -42.734375 23.1875 -42.421875 C 22.570312 -42.109375 21.929688 -41.785156 21.265625 -41.453125 Z M 21.265625 -41.453125 "/></g></g></g><g fill="#000000" fill-opacity="1"><g transform="translate(247.188467, 61.462633)"><g><path d="M 10.84375 -25.46875 C 11.175781 -25.570312 11.445312 -25.644531 11.65625 -25.6875 C 11.875 -25.738281 12.082031 -25.785156 12.28125 -25.828125 C 14.132812 -26.453125 15.890625 -27.203125 17.546875 -28.078125 C 19.210938 -28.960938 20.785156 -30 22.265625 -31.1875 C 23.597656 -32.28125 24.597656 -33.539062 25.265625 -34.96875 C 25.929688 -36.394531 26.179688 -37.757812 26.015625 -39.0625 C 25.847656 -40.375 24.882812 -41.648438 23.125 -42.890625 C 22.21875 -43.554688 21.226562 -44.078125 20.15625 -44.453125 C 19.082031 -44.835938 17.976562 -45.125 16.84375 -45.3125 C 15.125 -45.644531 13.429688 -45.765625 11.765625 -45.671875 C 10.109375 -45.578125 8.445312 -45.335938 6.78125 -44.953125 C 6.59375 -44.910156 6.378906 -44.875 6.140625 -44.84375 C 5.898438 -44.820312 5.660156 -44.835938 5.421875 -44.890625 C 4.085938 -45.023438 3.253906 -45.757812 2.921875 -47.09375 C 2.585938 -48.425781 3.015625 -49.5 4.203125 -50.3125 C 4.441406 -50.445312 4.703125 -50.585938 4.984375 -50.734375 C 5.273438 -50.878906 5.585938 -51 5.921875 -51.09375 C 8.960938 -52.09375 12.003906 -52.695312 15.046875 -52.90625 C 18.097656 -53.125 21.191406 -52.757812 24.328125 -51.8125 C 25.898438 -51.332031 27.375 -50.675781 28.75 -49.84375 C 30.132812 -49.007812 31.347656 -47.925781 32.390625 -46.59375 C 34.148438 -44.40625 35.195312 -42.109375 35.53125 -39.703125 C 35.863281 -37.304688 35.554688 -34.800781 34.609375 -32.1875 C 34.035156 -30.707031 33.285156 -29.335938 32.359375 -28.078125 C 31.429688 -26.816406 30.394531 -25.640625 29.25 -24.546875 C 27.539062 -22.835938 25.660156 -21.410156 23.609375 -20.265625 C 21.566406 -19.117188 19.359375 -18.210938 16.984375 -17.546875 C 16.703125 -17.453125 16.507812 -17.382812 16.40625 -17.34375 C 16.363281 -17.34375 16.269531 -17.222656 16.125 -16.984375 C 16.3125 -16.890625 16.488281 -16.769531 16.65625 -16.625 C 16.820312 -16.476562 17.003906 -16.335938 17.203125 -16.203125 C 18.960938 -15.054688 20.707031 -13.910156 22.4375 -12.765625 C 24.175781 -11.628906 25.898438 -10.441406 27.609375 -9.203125 C 28.804688 -8.347656 29.953125 -7.457031 31.046875 -6.53125 C 32.140625 -5.601562 33.253906 -4.660156 34.390625 -3.703125 C 34.628906 -3.515625 34.878906 -3.300781 35.140625 -3.0625 C 35.398438 -2.832031 35.675781 -2.617188 35.96875 -2.421875 C 36.726562 -1.953125 37.226562 -1.300781 37.46875 -0.46875 C 37.707031 0.363281 37.679688 1.160156 37.390625 1.921875 C 37.109375 2.679688 36.570312 3.300781 35.78125 3.78125 C 35 4.257812 34.15625 4.425781 33.25 4.28125 C 32.78125 4.1875 32.316406 4.078125 31.859375 3.953125 C 31.410156 3.835938 30.972656 3.6875 30.546875 3.5 C 29.734375 3.019531 28.910156 2.550781 28.078125 2.09375 C 27.242188 1.644531 26.445312 1.140625 25.6875 0.578125 C 23.5 -1.085938 21.332031 -2.765625 19.1875 -4.453125 C 17.050781 -6.148438 14.890625 -7.851562 12.703125 -9.5625 C 12.515625 -9.707031 12.3125 -9.847656 12.09375 -9.984375 C 11.882812 -10.128906 11.632812 -10.296875 11.34375 -10.484375 C 11.34375 -10.148438 11.332031 -9.863281 11.3125 -9.625 C 11.289062 -9.394531 11.28125 -9.160156 11.28125 -8.921875 C 11.28125 -8.398438 11.21875 -7.875 11.09375 -7.34375 C 10.976562 -6.820312 10.753906 -6.300781 10.421875 -5.78125 C 9.515625 -4.445312 8.320312 -3.742188 6.84375 -3.671875 C 5.375 -3.597656 4.164062 -4.226562 3.21875 -5.5625 C 2.5 -6.519531 2.140625 -7.59375 2.140625 -8.78125 C 2.191406 -9.875 2.21875 -10.96875 2.21875 -12.0625 C 2.21875 -13.15625 2.238281 -14.25 2.28125 -15.34375 C 2.332031 -16.25 2.023438 -17.007812 1.359375 -17.625 C 0.453125 -18.476562 0.0078125 -19.507812 0.03125 -20.71875 C 0.0625 -21.9375 0.570312 -22.953125 1.5625 -23.765625 C 2.039062 -24.140625 2.335938 -24.53125 2.453125 -24.9375 C 2.578125 -25.34375 2.664062 -25.804688 2.71875 -26.328125 C 2.8125 -29.328125 2.953125 -32.28125 3.140625 -35.1875 C 3.191406 -35.988281 3.238281 -36.789062 3.28125 -37.59375 C 3.332031 -38.40625 3.378906 -39.195312 3.421875 -39.96875 C 3.472656 -40.289062 3.546875 -40.617188 3.640625 -40.953125 C 3.734375 -41.285156 3.828125 -41.597656 3.921875 -41.890625 C 4.441406 -43.078125 5.300781 -43.671875 6.5 -43.671875 C 7.925781 -43.671875 8.804688 -43.078125 9.140625 -41.890625 C 9.367188 -41.265625 9.53125 -40.628906 9.625 -39.984375 C 9.726562 -39.347656 9.800781 -38.695312 9.84375 -38.03125 C 10.039062 -36.507812 10.195312 -34.960938 10.3125 -33.390625 C 10.425781 -31.828125 10.53125 -30.257812 10.625 -28.6875 C 10.675781 -28.207031 10.710938 -27.707031 10.734375 -27.1875 C 10.765625 -26.664062 10.800781 -26.09375 10.84375 -25.46875 Z M 26.328125 -34.25 C 26.378906 -34.207031 26.414062 -34.1875 26.4375 -34.1875 C 26.457031 -34.1875 26.492188 -34.160156 26.546875 -34.109375 C 26.828125 -34.296875 27.015625 -34.460938 27.109375 -34.609375 C 27.878906 -35.703125 28.332031 -36.84375 28.46875 -38.03125 C 28.613281 -39.21875 28.398438 -40.429688 27.828125 -41.671875 C 27.453125 -42.523438 26.785156 -43.191406 25.828125 -43.671875 C 25.734375 -43.765625 25.601562 -43.800781 25.4375 -43.78125 C 25.269531 -43.757812 25.046875 -43.769531 24.765625 -43.8125 C 26.328125 -42.53125 27.179688 -41.101562 27.328125 -39.53125 C 27.472656 -38.101562 27.285156 -36.75 26.765625 -35.46875 C 26.710938 -35.28125 26.648438 -35.085938 26.578125 -34.890625 C 26.503906 -34.703125 26.421875 -34.488281 26.328125 -34.25 Z M 28.265625 0.140625 C 28.160156 0.234375 28.109375 0.304688 28.109375 0.359375 C 28.210938 0.453125 28.285156 0.554688 28.328125 0.671875 C 28.378906 0.796875 28.453125 0.90625 28.546875 1 C 29.304688 1.613281 30.101562 2.097656 30.9375 2.453125 C 31.769531 2.816406 32.660156 3.046875 33.609375 3.140625 C 34.128906 3.140625 34.703125 3.019531 35.328125 2.78125 C 35.847656 2.539062 36.109375 2.039062 36.109375 1.28125 C 35.492188 1.757812 34.863281 2.019531 34.21875 2.0625 C 33.570312 2.113281 32.914062 2.066406 32.25 1.921875 C 31.539062 1.734375 30.851562 1.484375 30.1875 1.171875 C 29.519531 0.867188 28.878906 0.523438 28.265625 0.140625 Z M 3.859375 -11.484375 C 3.566406 -11.148438 3.421875 -10.984375 3.421875 -10.984375 C 3.140625 -9.128906 3.546875 -7.535156 4.640625 -6.203125 C 4.878906 -5.921875 5.1875 -5.695312 5.5625 -5.53125 C 5.945312 -5.363281 6.304688 -5.1875 6.640625 -5 C 7.109375 -4.707031 7.535156 -4.847656 7.921875 -5.421875 C 7.304688 -5.660156 6.722656 -5.910156 6.171875 -6.171875 C 5.628906 -6.429688 5.191406 -6.875 4.859375 -7.5 C 4.234375 -8.632812 3.898438 -9.960938 3.859375 -11.484375 Z M 2.921875 -18.203125 C 2.785156 -18.722656 2.632812 -19.207031 2.46875 -19.65625 C 2.300781 -20.113281 2.21875 -20.554688 2.21875 -20.984375 C 2.21875 -21.359375 2.300781 -21.75 2.46875 -22.15625 C 2.632812 -22.5625 2.765625 -23.003906 2.859375 -23.484375 C 2.234375 -23.242188 1.828125 -22.882812 1.640625 -22.40625 C 1.453125 -21.925781 1.359375 -21.425781 1.359375 -20.90625 C 1.265625 -19.71875 1.785156 -18.816406 2.921875 -18.203125 Z M 4.640625 -49.59375 C 4.160156 -49.21875 3.894531 -48.765625 3.84375 -48.234375 C 3.800781 -47.710938 3.945312 -47.191406 4.28125 -46.671875 C 5.09375 -45.671875 5.945312 -45.457031 6.84375 -46.03125 C 6.082031 -46.363281 5.441406 -46.78125 4.921875 -47.28125 C 4.398438 -47.78125 4.304688 -48.550781 4.640625 -49.59375 Z M 4.421875 -39.3125 C 4.515625 -39.3125 4.570312 -39.300781 4.59375 -39.28125 C 4.625 -39.257812 4.660156 -39.25 4.703125 -39.25 C 4.847656 -39.582031 4.96875 -39.898438 5.0625 -40.203125 C 5.15625 -40.515625 5.300781 -40.816406 5.5 -41.109375 C 5.6875 -41.441406 5.921875 -41.722656 6.203125 -41.953125 C 6.492188 -42.191406 6.757812 -42.429688 7 -42.671875 C 6.132812 -42.859375 5.515625 -42.671875 5.140625 -42.109375 C 4.421875 -41.335938 4.179688 -40.40625 4.421875 -39.3125 Z M 4.421875 -39.3125 "/></g></g></g></g></g></svg>